<mxfile host="app.diagrams.net" modified="2023-04-10T15:51:47.530Z" agent="Mozilla/5.0 (Windows NT 10.0; Win64; x64) AppleWebKit/537.36 (KHTML, like Gecko) Chrome/112.0.0.0 Safari/537.36" etag="MF4vzp4PsfuBU3B1430H" version="21.1.5" type="device">
  <diagram name="Page-1" id="KHZx4pYi6FFMYLz8XNPd">
    <mxGraphModel dx="1434" dy="800" grid="1" gridSize="10" guides="1" tooltips="1" connect="1" arrows="1" fold="1" page="1" pageScale="1" pageWidth="1169" pageHeight="827" math="0" shadow="0">
      <root>
        <mxCell id="0" />
        <mxCell id="1" parent="0" />
        <mxCell id="lPJCtKc1vXSqAaMGdCcz-1" value="&lt;b&gt;&lt;font style=&quot;font-size: 13px;&quot;&gt;CALLDATA&lt;/font&gt;&lt;/b&gt;" style="rounded=0;whiteSpace=wrap;html=1;labelPosition=center;verticalLabelPosition=top;align=center;verticalAlign=bottom;" parent="1" vertex="1">
          <mxGeometry x="220" y="120" width="680" height="640" as="geometry" />
        </mxCell>
        <mxCell id="lPJCtKc1vXSqAaMGdCcz-2" value="&lt;b&gt;Value of &lt;font style=&quot;font-size: 16px;&quot;&gt;a&lt;/font&gt;&lt;/b&gt;" style="rounded=0;whiteSpace=wrap;html=1;fillColor=#dae8fc;strokeColor=#6c8ebf;" parent="1" vertex="1">
          <mxGeometry x="260" y="170" width="600" height="40" as="geometry" />
        </mxCell>
        <mxCell id="lPJCtKc1vXSqAaMGdCcz-5" value="&lt;b&gt;Slot number of &lt;font style=&quot;font-size: 16px;&quot;&gt;B&lt;/font&gt;&lt;/b&gt;" style="rounded=0;whiteSpace=wrap;html=1;fillColor=#ffe6cc;strokeColor=#d79b00;" parent="1" vertex="1">
          <mxGeometry x="260" y="210" width="600" height="40" as="geometry" />
        </mxCell>
        <mxCell id="lPJCtKc1vXSqAaMGdCcz-6" value="&lt;b&gt;Value of &lt;font style=&quot;font-size: 16px;&quot;&gt;c&lt;/font&gt;&lt;/b&gt;" style="rounded=0;whiteSpace=wrap;html=1;fillColor=#d5e8d4;strokeColor=#82b366;" parent="1" vertex="1">
          <mxGeometry x="260" y="250" width="600" height="40" as="geometry" />
        </mxCell>
        <mxCell id="lPJCtKc1vXSqAaMGdCcz-7" value="&lt;b&gt;Value of &lt;font style=&quot;font-size: 16px;&quot;&gt;_struct.x&lt;/font&gt;&lt;/b&gt;" style="rounded=0;whiteSpace=wrap;html=1;fillColor=#f8cecc;strokeColor=#b85450;" parent="1" vertex="1">
          <mxGeometry x="260" y="290" width="600" height="40" as="geometry" />
        </mxCell>
        <mxCell id="lPJCtKc1vXSqAaMGdCcz-8" value="0x00" style="text;html=1;strokeColor=none;fillColor=none;align=center;verticalAlign=middle;whiteSpace=wrap;rounded=0;fontStyle=1" parent="1" vertex="1">
          <mxGeometry x="230" y="130" width="60" height="30" as="geometry" />
        </mxCell>
        <mxCell id="lPJCtKc1vXSqAaMGdCcz-9" value="0x1F" style="text;html=1;strokeColor=none;fillColor=none;align=center;verticalAlign=middle;whiteSpace=wrap;rounded=0;fontStyle=1" parent="1" vertex="1">
          <mxGeometry x="830" y="130" width="60" height="30" as="geometry" />
        </mxCell>
        <mxCell id="lPJCtKc1vXSqAaMGdCcz-10" value="0x00" style="text;html=1;strokeColor=none;fillColor=none;align=center;verticalAlign=middle;whiteSpace=wrap;rounded=0;fontStyle=1" parent="1" vertex="1">
          <mxGeometry x="210" y="175" width="60" height="30" as="geometry" />
        </mxCell>
        <mxCell id="lPJCtKc1vXSqAaMGdCcz-11" value="0x20" style="text;html=1;strokeColor=none;fillColor=none;align=center;verticalAlign=middle;whiteSpace=wrap;rounded=0;fontStyle=1" parent="1" vertex="1">
          <mxGeometry x="210" y="215" width="60" height="30" as="geometry" />
        </mxCell>
        <mxCell id="lPJCtKc1vXSqAaMGdCcz-12" value="0x40" style="text;html=1;strokeColor=none;fillColor=none;align=center;verticalAlign=middle;whiteSpace=wrap;rounded=0;fontStyle=1" parent="1" vertex="1">
          <mxGeometry x="210" y="255" width="60" height="30" as="geometry" />
        </mxCell>
        <mxCell id="lPJCtKc1vXSqAaMGdCcz-13" value="0x60" style="text;html=1;strokeColor=none;fillColor=none;align=center;verticalAlign=middle;whiteSpace=wrap;rounded=0;fontStyle=1" parent="1" vertex="1">
          <mxGeometry x="210" y="295" width="60" height="30" as="geometry" />
        </mxCell>
        <mxCell id="lPJCtKc1vXSqAaMGdCcz-14" value="&lt;b&gt;Value of &lt;font style=&quot;font-size: 16px;&quot;&gt;_struct.y&lt;/font&gt;&lt;/b&gt;" style="rounded=0;whiteSpace=wrap;html=1;fillColor=#f8cecc;strokeColor=#b85450;" parent="1" vertex="1">
          <mxGeometry x="260" y="330" width="600" height="40" as="geometry" />
        </mxCell>
        <mxCell id="lPJCtKc1vXSqAaMGdCcz-15" value="&lt;b style=&quot;border-color: var(--border-color);&quot;&gt;Slot number of &lt;span style=&quot;font-size: 16px;&quot;&gt;D&lt;/span&gt;&lt;/b&gt;" style="rounded=0;whiteSpace=wrap;html=1;fillColor=#e1d5e7;strokeColor=#9673a6;" parent="1" vertex="1">
          <mxGeometry x="260" y="370" width="600" height="40" as="geometry" />
        </mxCell>
        <mxCell id="lPJCtKc1vXSqAaMGdCcz-16" value="&lt;b&gt;Value of &lt;span style=&quot;font-size: 16px;&quot;&gt;e&lt;/span&gt;&lt;/b&gt;" style="rounded=0;whiteSpace=wrap;html=1;fillColor=#f5f5f5;strokeColor=#666666;fontColor=#333333;" parent="1" vertex="1">
          <mxGeometry x="260" y="410" width="600" height="40" as="geometry" />
        </mxCell>
        <mxCell id="lPJCtKc1vXSqAaMGdCcz-17" value="&lt;b&gt;Array length of&amp;nbsp;&lt;font style=&quot;font-size: 16px;&quot;&gt;B&lt;/font&gt;&lt;/b&gt;" style="rounded=0;whiteSpace=wrap;html=1;fillColor=#ffe6cc;strokeColor=#d79b00;" parent="1" vertex="1">
          <mxGeometry x="260" y="450" width="600" height="40" as="geometry" />
        </mxCell>
        <mxCell id="lPJCtKc1vXSqAaMGdCcz-18" value="&lt;b&gt;Value 1 of&amp;nbsp;&lt;font style=&quot;font-size: 16px;&quot;&gt;B&lt;/font&gt;&lt;/b&gt;" style="rounded=0;whiteSpace=wrap;html=1;fillColor=#ffe6cc;strokeColor=#d79b00;" parent="1" vertex="1">
          <mxGeometry x="260" y="490" width="600" height="40" as="geometry" />
        </mxCell>
        <mxCell id="lPJCtKc1vXSqAaMGdCcz-19" value="&lt;b&gt;Value 2 of&amp;nbsp;&lt;font style=&quot;font-size: 16px;&quot;&gt;B&lt;/font&gt;&lt;/b&gt;" style="rounded=0;whiteSpace=wrap;html=1;fillColor=#ffe6cc;strokeColor=#d79b00;" parent="1" vertex="1">
          <mxGeometry x="260" y="530" width="600" height="40" as="geometry" />
        </mxCell>
        <mxCell id="lPJCtKc1vXSqAaMGdCcz-20" value="&lt;b&gt;Value 3 of&amp;nbsp;&lt;font style=&quot;font-size: 16px;&quot;&gt;B&lt;/font&gt;&lt;/b&gt;" style="rounded=0;whiteSpace=wrap;html=1;fillColor=#ffe6cc;strokeColor=#d79b00;" parent="1" vertex="1">
          <mxGeometry x="260" y="570" width="600" height="40" as="geometry" />
        </mxCell>
        <mxCell id="lPJCtKc1vXSqAaMGdCcz-21" value="&lt;b&gt;Array length of &lt;span style=&quot;font-size: 16px;&quot;&gt;D&lt;/span&gt;&lt;/b&gt;" style="rounded=0;whiteSpace=wrap;html=1;fillColor=#e1d5e7;strokeColor=#9673a6;" parent="1" vertex="1">
          <mxGeometry x="260" y="610" width="600" height="40" as="geometry" />
        </mxCell>
        <mxCell id="lPJCtKc1vXSqAaMGdCcz-22" value="&lt;b style=&quot;border-color: var(--border-color);&quot;&gt;Value 1 of &lt;span style=&quot;font-size: 16px;&quot;&gt;D&lt;/span&gt;&lt;/b&gt;" style="rounded=0;whiteSpace=wrap;html=1;fillColor=#e1d5e7;strokeColor=#9673a6;" parent="1" vertex="1">
          <mxGeometry x="260" y="650" width="600" height="40" as="geometry" />
        </mxCell>
        <mxCell id="lPJCtKc1vXSqAaMGdCcz-23" value="&lt;b style=&quot;border-color: var(--border-color);&quot;&gt;Value 2 of &lt;span style=&quot;font-size: 16px;&quot;&gt;D&lt;/span&gt;&lt;/b&gt;" style="rounded=0;whiteSpace=wrap;html=1;fillColor=#e1d5e7;strokeColor=#9673a6;" parent="1" vertex="1">
          <mxGeometry x="260" y="690" width="600" height="40" as="geometry" />
        </mxCell>
        <mxCell id="lPJCtKc1vXSqAaMGdCcz-4" value="" style="endArrow=none;html=1;rounded=0;strokeWidth=3;" parent="1" edge="1">
          <mxGeometry width="50" height="50" relative="1" as="geometry">
            <mxPoint x="860" y="740" as="sourcePoint" />
            <mxPoint x="860" y="160" as="targetPoint" />
          </mxGeometry>
        </mxCell>
        <mxCell id="lPJCtKc1vXSqAaMGdCcz-3" value="" style="endArrow=none;html=1;rounded=0;strokeWidth=3;" parent="1" edge="1">
          <mxGeometry width="50" height="50" relative="1" as="geometry">
            <mxPoint x="260" y="740" as="sourcePoint" />
            <mxPoint x="260" y="160" as="targetPoint" />
          </mxGeometry>
        </mxCell>
        <mxCell id="lPJCtKc1vXSqAaMGdCcz-24" value="0x80" style="text;html=1;strokeColor=none;fillColor=none;align=center;verticalAlign=middle;whiteSpace=wrap;rounded=0;fontStyle=1" parent="1" vertex="1">
          <mxGeometry x="210" y="335" width="60" height="30" as="geometry" />
        </mxCell>
        <mxCell id="lPJCtKc1vXSqAaMGdCcz-25" value="0xA0" style="text;html=1;strokeColor=none;fillColor=none;align=center;verticalAlign=middle;whiteSpace=wrap;rounded=0;fontStyle=1" parent="1" vertex="1">
          <mxGeometry x="210" y="375" width="60" height="30" as="geometry" />
        </mxCell>
        <mxCell id="lPJCtKc1vXSqAaMGdCcz-26" value="0xC0" style="text;html=1;strokeColor=none;fillColor=none;align=center;verticalAlign=middle;whiteSpace=wrap;rounded=0;fontStyle=1" parent="1" vertex="1">
          <mxGeometry x="210" y="415" width="60" height="30" as="geometry" />
        </mxCell>
        <mxCell id="lPJCtKc1vXSqAaMGdCcz-27" value="0xE0" style="text;html=1;strokeColor=none;fillColor=none;align=center;verticalAlign=middle;whiteSpace=wrap;rounded=0;fontStyle=1" parent="1" vertex="1">
          <mxGeometry x="210" y="455" width="60" height="30" as="geometry" />
        </mxCell>
        <mxCell id="lPJCtKc1vXSqAaMGdCcz-28" value="0x100" style="text;html=1;strokeColor=none;fillColor=none;align=center;verticalAlign=middle;whiteSpace=wrap;rounded=0;fontStyle=1" parent="1" vertex="1">
          <mxGeometry x="210" y="495" width="60" height="30" as="geometry" />
        </mxCell>
        <mxCell id="lPJCtKc1vXSqAaMGdCcz-29" value="0x120" style="text;html=1;strokeColor=none;fillColor=none;align=center;verticalAlign=middle;whiteSpace=wrap;rounded=0;fontStyle=1" parent="1" vertex="1">
          <mxGeometry x="210" y="535" width="60" height="30" as="geometry" />
        </mxCell>
        <mxCell id="lPJCtKc1vXSqAaMGdCcz-30" value="0x140" style="text;html=1;strokeColor=none;fillColor=none;align=center;verticalAlign=middle;whiteSpace=wrap;rounded=0;fontStyle=1" parent="1" vertex="1">
          <mxGeometry x="210" y="575" width="60" height="30" as="geometry" />
        </mxCell>
        <mxCell id="lPJCtKc1vXSqAaMGdCcz-31" value="0x160" style="text;html=1;strokeColor=none;fillColor=none;align=center;verticalAlign=middle;whiteSpace=wrap;rounded=0;fontStyle=1" parent="1" vertex="1">
          <mxGeometry x="210" y="615" width="60" height="30" as="geometry" />
        </mxCell>
        <mxCell id="lPJCtKc1vXSqAaMGdCcz-32" value="0x180" style="text;html=1;strokeColor=none;fillColor=none;align=center;verticalAlign=middle;whiteSpace=wrap;rounded=0;fontStyle=1" parent="1" vertex="1">
          <mxGeometry x="210" y="655" width="60" height="30" as="geometry" />
        </mxCell>
        <mxCell id="lPJCtKc1vXSqAaMGdCcz-33" value="0x1A0" style="text;html=1;strokeColor=none;fillColor=none;align=center;verticalAlign=middle;whiteSpace=wrap;rounded=0;fontStyle=1" parent="1" vertex="1">
          <mxGeometry x="210" y="695" width="60" height="30" as="geometry" />
        </mxCell>
      </root>
    </mxGraphModel>
  </diagram>
</mxfile>
